HIERARCHY
ROOT root
{
	OFFSET 0.000000 0.000000 0.000000
	CHANNELS 6 Xposition Yposition Zposition Zrotation Yrotation Xrotation
	JOINT lhip
	{
		OFFSET 0.058581 -0.082280 -0.017664
		CHANNELS 3 Zrotation Yrotation Xrotation
		JOINT lknee
		{
			OFFSET 0.043451 -0.386469 0.008037
			CHANNELS 3 Zrotation Yrotation Xrotation
			JOINT lankle
			{
				OFFSET -0.014790 -0.426874 -0.037428
				CHANNELS 3 Zrotation Yrotation Xrotation
				JOINT ltoe
				{
					OFFSET 0.041054 -0.060286 0.122042
					CHANNELS 3 Zrotation Yrotation Xrotation
					End Site
					{
						OFFSET 0.000000 0.000000 0.000000
					}
				}
			}
		}
	}
	JOINT rhip
	{
		OFFSET -0.060310 -0.090513 -0.013543
		CHANNELS 3 Zrotation Yrotation Xrotation
		JOINT rknee
		{
			OFFSET -0.043257 -0.383688 -0.004843
			CHANNELS 3 Zrotation Yrotation Xrotation
			JOINT rankle
			{
				OFFSET 0.019056 -0.420046 -0.034562
				CHANNELS 3 Zrotation Yrotation Xrotation
				JOINT rtoe
				{
					OFFSET -0.034840 -0.062106 0.130323
					CHANNELS 3 Zrotation Yrotation Xrotation
					End Site
					{
						OFFSET 0.000000 0.000000 0.000000
					}
				}
			}
		}
	}
	JOINT lowerback
	{
		OFFSET 0.004439 0.124404 -0.038385
		CHANNELS 3 Zrotation Yrotation Xrotation
		JOINT upperback
		{
			OFFSET 0.004488 0.137956 0.026820
			CHANNELS 3 Zrotation Yrotation Xrotation
			JOINT chest
			{
				OFFSET -0.002265 0.056032 0.002855
				CHANNELS 3 Zrotation Yrotation Xrotation
				JOINT lowerneck
				{
					OFFSET -0.013390 0.211636 -0.033468
					CHANNELS 3 Zrotation Yrotation Xrotation
					JOINT upperneck
					{
						OFFSET 0.010113 0.088937 0.050410
						CHANNELS 3 Zrotation Yrotation Xrotation
						End Site
						{
							OFFSET 0.000000 0.000000 0.000000
						}
					}
				}
				JOINT lclavicle
				{
					OFFSET 0.071702 0.114000 -0.018898
					CHANNELS 3 Zrotation Yrotation Xrotation
					JOINT lshoulder
					{
						OFFSET 0.122921 0.045205 -0.019046
						CHANNELS 3 Zrotation Yrotation Xrotation
						JOINT lelbow
						{
							OFFSET 0.255332 -0.015649 -0.022946
							CHANNELS 3 Zrotation Yrotation Xrotation
							JOINT lwrist
							{
								OFFSET 0.265709 0.012698 -0.007375
								CHANNELS 3 Zrotation Yrotation Xrotation
								End Site
								{
									OFFSET 0.000000 0.000000 0.000000
								}
							}
						}
					}
				}
				JOINT rclavicle
				{
					OFFSET -0.082954 0.112472 -0.023707
					CHANNELS 3 Zrotation Yrotation Xrotation
					JOINT rshoulder
					{
						OFFSET -0.113228 0.046853 -0.008472
						CHANNELS 3 Zrotation Yrotation Xrotation
						JOINT relbow
						{
							OFFSET -0.260127 -0.014369 -0.031269
							CHANNELS 3 Zrotation Yrotation Xrotation
							JOINT rwrist
							{
								OFFSET -0.269108 0.006794 -0.006027
								CHANNELS 3 Zrotation Yrotation Xrotation
								End Site
								{
									OFFSET 0.000000 0.000000 0.000000
								}
							}
						}
					}
				}
			}
		}
	}
}
MOTION
Frames: 13
Frame Time: 0.033333
0.346206 0.181299 0.986142 85.479500 -0.625402 92.286178 6.485286 7.315052 4.256850 -4.025295 3.101760 -5.359063 -1.149252 10.369769 -3.200095 0.000000 -0.000000 0.000000 -9.533956 -2.634570 -2.430633 2.677489 -1.376703 1.247253 6.389415 -2.868644 -4.427913 0.000000 -0.000000 0.000000 -4.868876 2.103710 -9.981454 2.316202 -0.215466 11.713323 -0.634639 1.939342 -3.685574 3.326302 3.352845 7.892292 4.489410 -4.698918 -1.149817 -25.238226 -0.771157 -2.221122 -56.195100 -6.894962 20.547843 -2.512677 -16.945062 11.306362 -5.829181 -16.472533 11.201330 29.511251 3.667857 4.456064 54.374447 3.275588 15.501328 -6.509531 25.033197 -0.625786 -0.628821 12.274170 4.073407 
0.346056 0.181344 0.985985 85.488067 -0.587896 92.261506 6.514998 7.263069 4.271453 -3.999012 3.082802 -5.344535 -1.137816 10.413629 -3.213168 0.000000 -0.000000 0.000000 -9.495812 -2.553200 -2.407978 2.682789 -1.283240 1.243639 6.378130 -3.062952 -4.438179 0.000000 -0.000000 0.000000 -4.744983 2.039767 -9.970447 2.196888 -0.120715 11.519380 -0.622857 1.929171 -3.466364 3.388744 3.262960 7.624351 4.393527 -4.715778 -0.770177 -25.233509 -0.759239 -2.110569 -56.330776 -6.690043 20.411901 -1.711606 -17.472053 11.636067 -6.646925 -15.753268 11.787946 29.469216 3.661263 4.626346 54.546205 3.415703 15.556086 -6.822228 25.087550 -0.683100 -0.148677 11.983498 3.986774 
0.346184 0.181344 0.986015 85.558105 -0.581221 92.209491 6.491867 7.252478 4.343898 -3.980165 3.055819 -5.390946 -1.135270 10.416328 -3.176712 0.000000 -0.000000 0.000000 -9.469893 -2.527139 -2.295578 2.643412 -1.221542 1.118186 6.400757 -3.151001 -4.432043 0.000000 -0.000000 0.000000 -4.649515 1.973934 -10.062790 2.098219 -0.103039 11.614295 -0.665105 1.927265 -3.461352 3.541745 3.288327 7.405788 4.285942 -4.639090 -0.417893 -25.262062 -0.801660 -1.950819 -56.522009 -6.530214 20.341889 -0.825156 -17.785235 11.650634 -7.520516 -15.113836 12.373435 29.355123 3.845096 4.875386 54.780199 3.504625 15.662800 -7.015823 25.041152 -0.827203 0.234570 11.793914 3.783112 
0.342423 0.180576 0.985510 87.021560 -0.201730 92.619549 7.069864 6.322388 2.729180 -4.100552 2.964213 -4.192608 -0.946953 10.103084 -3.228412 0.000000 -0.000000 0.000000 -8.743522 -2.693871 -2.519580 2.453363 -1.547711 0.673776 5.824515 -4.028847 -4.341151 0.000000 -0.000000 0.000000 -4.619428 1.914982 -9.085978 2.104828 -1.198213 10.003607 -0.473333 1.657775 -3.213144 3.689219 2.887730 6.514285 3.954148 -4.253131 0.868281 -25.197362 -0.718246 -1.989844 -56.994329 -6.406276 20.886016 0.211615 -17.854941 11.745789 -8.149181 -14.485690 12.606686 28.804984 4.030201 4.870089 55.368796 3.549733 16.349920 -7.136396 24.713154 -0.720355 0.562489 11.846251 2.871604 
0.342377 0.180581 0.985610 87.043429 -0.204248 92.633202 7.045302 6.298922 2.718259 -4.084369 2.965449 -4.197648 -0.949910 10.087962 -3.232555 0.000000 -0.000000 0.000000 -8.762532 -2.694526 -2.521681 2.481872 -1.546144 0.630135 5.814901 -4.040091 -4.308461 0.000000 -0.000000 0.000000 -4.583897 1.954730 -9.013764 2.064747 -1.191800 9.914854 -0.499378 1.598603 -3.272363 3.753641 2.880102 6.495910 3.939884 -4.270881 0.954862 -25.164548 -0.638843 -1.999950 -57.035230 -6.413873 20.902628 0.182508 -17.781304 11.838660 -8.199752 -14.514703 12.637604 28.780122 3.929978 4.835751 55.487617 3.531374 16.400230 -7.181140 24.695825 -0.654365 0.544015 11.874077 2.863790 
0.342290 0.180487 0.985819 87.045669 -0.237852 92.649646 6.982752 6.284418 2.714866 -4.069210 2.948301 -4.221240 -0.861765 10.060132 -3.209969 0.000000 -0.000000 0.000000 -8.767745 -2.689555 -2.589787 2.438074 -1.477306 0.670655 5.792067 -4.063231 -4.287239 0.000000 -0.000000 0.000000 -4.563885 2.130537 -8.723430 2.019216 -1.161425 9.644094 -0.566441 1.367193 -3.487568 3.904928 2.892159 6.436510 3.811769 -4.283770 1.180842 -25.136784 -0.302606 -2.087644 -57.056667 -6.381166 20.969475 0.103610 -18.024085 12.206629 -8.416540 -13.933466 12.554819 29.063028 3.249402 4.493269 55.382929 3.606633 16.483577 -7.205046 24.741372 -0.248976 1.075984 11.599690 3.122982 
0.342332 0.180356 0.985917 87.012919 -0.259891 92.600666 6.942454 6.274852 2.818705 -4.069977 2.955644 -4.291015 -0.823742 10.045274 -3.239502 0.000000 -0.000000 0.000000 -8.746862 -2.663083 -2.604481 2.363724 -1.509691 0.731021 5.799951 -4.038474 -4.327218 0.000000 -0.000000 0.000000 -4.577332 2.176627 -8.670436 2.015298 -1.156395 9.657115 -0.595527 1.376965 -3.540341 3.962237 2.908483 6.435475 3.818661 -4.313428 1.220165 -25.146761 -0.373516 -2.026020 -57.097780 -6.398173 20.955634 0.110090 -18.103305 12.096623 -8.360554 -13.701658 12.379158 29.120199 3.216325 4.490179 55.388313 3.625894 16.446372 -7.247756 24.705426 -0.260931 1.260596 11.531290 3.205736 
0.342326 0.180288 0.985931 87.010840 -0.252443 92.598393 6.924055 6.244451 2.827422 -4.056530 2.979495 -4.301478 -0.837119 10.025258 -3.276333 0.000000 -0.000000 0.000000 -8.739818 -2.662898 -2.600896 2.365220 -1.508480 0.685459 5.802408 -4.029001 -4.311849 0.000000 -0.000000 0.000000 -4.572050 2.156883 -8.652380 2.009746 -1.164837 9.604150 -0.586508 1.405279 -3.478893 3.965695 2.918905 6.390861 3.813847 -4.308413 1.217286 -25.108268 -0.380280 -2.021278 -57.230207 -6.462739 20.928278 0.106161 -18.020896 12.089984 -8.266774 -13.751893 12.326934 29.079506 3.161078 4.479233 55.438872 3.735998 16.406036 -7.196844 24.629252 -0.169128 1.216180 11.511546 3.261419 
0.342356 0.180283 0.985977 86.988307 -0.255873 92.593353 6.895886 6.221743 2.852148 -4.026592 2.938807 -4.314264 -0.804273 10.037206 -3.287436 0.000000 -0.000000 0.000000 -8.743958 -2.644388 -2.598905 2.350932 -1.490276 0.671759 5.823941 -4.012157 -4.321151 0.000000 -0.000000 0.000000 -4.544294 2.164795 -8.596060 1.969258 -1.143598 9.614936 -0.598581 1.447059 -3.571214 3.952995 2.856092 6.428715 3.839032 -4.322275 1.196500 -25.035501 -0.446744 -1.985903 -57.338991 -6.389502 20.977922 0.121053 -18.045982 11.959807 -8.173476 -13.807345 12.268145 28.912267 3.386034 4.618496 55.667828 3.600225 16.459964 -7.271754 24.620084 -0.496552 0.965551 11.613221 3.088937 
0.342392 0.180265 0.985971 86.979768 -0.257841 92.567184 6.880561 6.221587 2.887094 -4.013818 2.930739 -4.338044 -0.786430 10.039219 -3.290501 0.000000 -0.000000 0.000000 -8.752045 -2.649009 -2.583675 2.360066 -1.522856 0.674108 5.813855 -4.013036 -4.293878 0.000000 -0.000000 0.000000 -4.567333 2.167332 -8.563843 1.998523 -1.144401 9.610480 -0.586212 1.439542 -3.526332 3.927939 2.871314 6.325935 3.839323 -4.343294 1.251287 -25.053832 -0.410187 -2.013531 -57.395096 -6.455072 20.961816 0.107187 -17.979006 12.023093 -8.127915 -13.859847 12.278989 29.011684 3.227413 4.476873 55.571707 3.636103 16.385316 -7.280757 24.678861 -0.301268 1.044847 11.634855 3.238311 
0.342321 0.180226 0.985959 86.973142 -0.254113 92.573842 6.885834 6.206176 2.868405 -4.013171 2.925981 -4.324131 -0.758948 10.036497 -3.300063 0.000000 -0.000000 0.000000 -8.742583 -2.662616 -2.608737 2.355008 -1.526384 0.682561 5.800916 -3.995750 -4.308806 0.000000 -0.000000 0.000000 -4.590211 2.195173 -8.582905 2.005874 -1.143168 9.654899 -0.581447 1.438119 -3.531941 3.923474 2.869214 6.307724 3.849329 -4.379877 1.317204 -25.026305 -0.447351 -1.986250 -57.476054 -6.513468 20.936985 0.138263 -17.887238 11.942885 -8.140080 -13.868822 12.288635 29.014286 3.252690 4.512340 55.598476 3.677258 16.358295 -7.317663 24.632216 -0.298381 1.070249 11.632247 3.240768 
0.342293 0.180183 0.985920 86.994909 -0.242654 92.588685 6.897685 6.212499 2.846569 -4.027974 2.928951 -4.334011 -0.798227 10.066176 -3.292793 0.000000 -0.000000 0.000000 -8.736172 -2.637070 -2.619776 2.382426 -1.490874 0.646738 5.800055 -4.068945 -4.323720 0.000000 -0.000000 0.000000 -4.603937 2.209946 -8.572280 2.003526 -1.131641 9.536248 -0.532432 1.436792 -3.433670 3.896687 2.881213 6.304857 3.863672 -4.407789 1.362604 -24.899101 -0.478052 -2.039624 -57.738044 -6.838416 20.870161 0.057502 -17.240299 12.120177 -8.228891 -14.050431 12.383398 28.868745 3.298185 4.539134 55.736097 3.720457 16.396257 -7.273654 24.479909 -0.204458 0.948739 11.642105 3.103786 
0.342194 0.180048 0.985889 87.006867 -0.234403 92.591580 6.900336 6.193946 2.857321 -4.009022 2.868634 -4.359451 -0.795137 10.084298 -3.324590 0.000000 -0.000000 0.000000 -8.705035 -2.615794 -2.657128 2.359454 -1.467369 0.657939 5.803121 -4.095272 -4.311201 0.000000 -0.000000 0.000000 -4.621410 2.220959 -8.541204 2.011396 -1.118537 9.456715 -0.514619 1.403707 -3.384480 3.871376 2.931599 6.195137 3.868976 -4.381987 1.466877 -24.913771 -0.441628 -2.094129 -57.775615 -7.019487 20.772233 -0.022758 -16.901819 12.211643 -8.256148 -14.167880 12.508157 28.892910 3.180146 4.442372 55.726407 3.786742 16.347654 -7.232317 24.447777 -0.041687 0.983228 11.638146 3.186610 
